<svg width="123" height="37" viewBox="0 0 123 37" fill="none" xmlns="http://www.w3.org/2000/svg">
<path d="M47.7724 15.4131V3.69137H43.4761V0.302217H56.0055V3.69137H51.7291V15.4131H47.7724Z" fill="white"/>
<path d="M65.3376 15.7153C60.8613 15.7153 57.5641 12.3909 57.5641 7.85764C57.5641 3.32439 60.8613 0 65.3376 0C69.8138 0 73.111 3.32439 73.111 7.85764C73.111 12.3909 69.8138 15.7153 65.3376 15.7153ZM65.3376 12.175C67.4558 12.175 69.1144 10.4697 69.1144 7.85764C69.1144 5.24562 67.4558 3.54026 65.3376 3.54026C63.2194 3.54026 61.5608 5.24562 61.5608 7.85764C61.5608 10.4697 63.2194 12.175 65.3376 12.175Z" fill="white"/>
<path d="M76.1824 15.4131V0.302217H82.7968C87.4329 0.302217 90.6102 3.21645 90.6102 7.85764C90.6102 12.4988 87.4329 15.4131 82.7968 15.4131H76.1824ZM80.1391 12.0023H82.637C85.015 12.0023 86.6136 10.4697 86.6136 7.85764C86.6136 5.24562 85.015 3.71295 82.637 3.71295H80.1391V12.0023Z" fill="white"/>
<path d="M103.967 15.4131L102.868 12.4772H96.953L95.8539 15.4131H91.8173L97.9921 0.302217H101.889L108.084 15.4131H103.967ZM98.112 9.32555H101.709L99.9105 4.49008L98.112 9.32555Z" fill="white"/>
<path d="M122.175 0.302217L116.82 9.99475V15.4131H112.863V9.92999L107.528 0.302217H111.704L115.021 6.30338L118.339 0.302217H122.175Z" fill="white"/>
<path d="M51.1895 21.8891C55.0063 21.8891 57.4043 24.0263 57.4043 27.4802C57.4043 30.9125 55.0063 33.0496 51.1895 33.0496H48.7516V37H44.795V21.8891H51.1895ZM50.9497 29.682C52.5884 29.682 53.4077 28.8617 53.4077 27.4802C53.4077 26.077 52.5884 25.2567 50.9497 25.2567H48.7516V29.682H50.9497Z" fill="white"/>
<path d="M68.9852 37L66.4474 32.9848H64.2892V37H60.3326V21.8891H66.7272C70.5439 21.8891 72.9419 24.0263 72.9419 27.4802C72.9419 29.7036 71.9427 31.3442 70.2042 32.2509L73.2217 37H68.9852ZM68.9453 27.4802C68.9453 26.077 68.126 25.2567 66.4874 25.2567H64.2892V29.682H66.4874C68.126 29.682 68.9453 28.8617 68.9453 27.4802Z" fill="white"/>
<path d="M76.1239 37V21.8891H80.0805V37H76.1239Z" fill="white"/>
<path d="M93.3267 21.8891H97.2034V37H93.9461L87.7714 28.9481V37H83.8947V21.8891H87.1519L93.3267 29.9411V21.8891Z" fill="white"/>
<path d="M103.971 37V25.2783H99.6746V21.8891H112.204V25.2783H107.928V37H103.971Z" fill="white"/>
<ellipse cx="21.2782" cy="19.5571" rx="16.1434" ry="17.4429" fill="#FFA800"/>
<ellipse cx="9.17102" cy="9.51429" rx="9.08069" ry="9.51429" fill="#FFCE6F"/>
</svg>
