<svg width="37" height="36" viewBox="0 0 37 36" fill="none" xmlns="http://www.w3.org/2000/svg">
<path fill-rule="evenodd" clip-rule="evenodd" d="M16.809 0.0158382C13.2822 0.387861 9.96447 1.74791 7.19501 3.95689C6.42829 4.56845 5.10628 5.88943 4.49183 6.65797C2.52191 9.12184 1.25435 11.9608 0.701526 15.1471C0.486286 16.3879 0.467692 19.4268 0.668001 20.6308C1.02502 22.7764 1.59193 24.5102 2.52093 26.2974C3.38443 27.9586 4.43492 29.3876 5.78327 30.7352C8.74952 33.6998 12.5579 35.5079 16.7585 35.9461C17.779 36.0525 20.2239 35.9935 21.211 35.8386C23.0699 35.5469 24.7634 35.0122 26.4582 34.1816C28.3186 33.2699 29.8278 32.1925 31.2859 30.7352C34.2079 27.8148 35.9541 24.2057 36.4658 20.029C36.6087 18.8617 36.5708 16.3572 36.3945 15.3162C35.7113 11.2841 34.0485 8.00782 31.2851 5.24872C28.9697 2.9369 26.1803 1.33823 23.0461 0.526745C21.4967 0.12558 20.7011 0.0276641 18.8163 0.00598333C17.8672 -0.00492746 16.9639 -0.000492748 16.809 0.0158382ZM23.8717 9.64964L29.0671 12.8877L23.8009 12.9057C20.9044 12.9156 16.1649 12.9156 13.2686 12.9057L8.00252 12.8877L13.2158 9.63359C16.083 7.84387 18.4846 6.38675 18.5526 6.39555C18.6207 6.40435 21.0142 7.86872 23.8717 9.64964ZM13.4566 16.6156C15.9901 18.1939 18.1609 19.5134 18.2807 19.5477C18.4004 19.5821 18.598 19.5914 18.72 19.5685C18.8418 19.5457 21.2667 18.0781 24.1085 16.3071L29.2755 13.0871L29.2935 18.4761C29.3136 24.4567 29.3284 24.2449 28.8504 24.803C28.716 24.9599 28.4414 25.1703 28.2402 25.2705L27.8744 25.4527H18.5346H9.19479L8.82897 25.2705C8.62774 25.1703 8.35383 24.9607 8.22029 24.8047C7.74255 24.2469 7.75847 24.4656 7.75847 18.4708V13.0627L8.30432 13.4043C8.60457 13.5921 10.9231 15.0372 13.4566 16.6156Z" fill="white"/>
</svg>
