<svg width="37" height="36" viewBox="0 0 37 36" fill="none" xmlns="http://www.w3.org/2000/svg">
<path fill-rule="evenodd" clip-rule="evenodd" d="M16.7164 0.015836C13.1893 0.387806 9.8714 1.74766 7.10174 3.95633C6.33496 4.56781 5.01286 5.88861 4.39837 6.65704C2.80599 8.6483 1.54644 11.1581 0.940186 13.5478C0.536159 15.1404 0.450437 15.9078 0.44783 17.9534C0.445295 19.9745 0.50418 20.5559 0.868622 22.106C1.73288 25.7822 3.79606 29.1911 6.6177 31.6048C9.50379 34.0738 12.9451 35.5586 16.6703 35.9424C17.8154 36.0604 20.2165 35.9886 21.2987 35.804C24.4505 35.2664 27.3216 33.9863 29.7825 32.0214C30.5515 31.4074 31.8733 30.0863 32.4853 29.3201C34.2795 27.0737 35.5536 24.3866 36.1161 21.6629C36.6338 19.1559 36.5856 16.197 35.9869 13.7293C34.8907 9.21023 31.981 5.1914 27.9863 2.6784C26.542 1.76983 24.4861 0.895967 22.8444 0.492817C21.3112 0.116272 20.5558 0.0270268 18.7239 0.00598249C17.7747 -0.00492676 16.8714 -0.000492679 16.7164 0.015836ZM11.7858 7.25381C12.1372 7.46235 15.641 10.9791 15.7844 11.2671C15.9618 11.6237 15.997 11.9292 15.9002 12.2745C15.8266 12.5371 15.6591 12.7552 15.0234 13.4163C14.1383 14.3369 14.0045 14.5946 14.0046 15.3794C14.0047 15.9339 14.1812 16.3481 14.8653 17.3985C16.0266 19.1816 17.5967 20.705 19.3867 21.7854C20.3507 22.3672 20.5609 22.4406 21.1801 22.4117C21.9028 22.378 22.1813 22.2215 23.091 21.3379C23.6892 20.7569 23.8932 20.6022 24.158 20.5286C24.5062 20.4319 24.8117 20.4668 25.1689 20.6443C25.461 20.7894 28.9798 24.2927 29.182 24.6397C29.4083 25.0281 29.4518 25.3006 29.3517 25.7033C29.2758 26.0087 29.1532 26.1622 28.2611 27.0679C27.6871 27.6508 27.0852 28.1918 26.8577 28.3296C25.5835 29.101 23.6387 29.1238 21.5454 28.3921C16.3246 26.5669 10.0995 20.4193 8.12421 15.1381C7.53 13.5494 7.33144 11.8209 7.61889 10.7392C7.8819 9.74943 8.07863 9.45523 9.27219 8.26725C10.16 7.38352 10.4324 7.15274 10.6588 7.09242C11.0356 6.99213 11.4431 7.05048 11.7858 7.25381Z" fill="white"/>
</svg>
