<svg width="37" height="36" viewBox="0 0 37 36" fill="none" xmlns="http://www.w3.org/2000/svg">
<path fill-rule="evenodd" clip-rule="evenodd" d="M16.7622 0.015836C13.234 0.387806 9.91495 1.74766 7.14441 3.95633C6.37738 4.56781 5.05485 5.88861 4.44016 6.65704C2.84728 8.6483 1.58732 11.1581 0.980871 13.5478C0.576714 15.1404 0.490965 15.9078 0.488358 17.9534C0.485821 19.9745 0.544726 20.5559 0.909284 22.106C1.77382 25.7822 3.83766 29.1911 6.66021 31.6048C9.54722 34.0738 12.9897 35.5586 16.7161 35.9424C17.8615 36.0604 20.2634 35.9886 21.3459 35.804C24.4988 35.2664 27.3708 33.9863 29.8324 32.0214C30.6017 31.4074 31.924 30.0863 32.5361 29.3201C34.7216 26.5847 36.0246 23.457 36.4299 19.9737C36.568 18.787 36.5287 16.3398 36.3551 15.3141C35.674 11.2895 34.0057 8.00395 31.244 5.24799C28.5167 2.52637 25.2507 0.8524 21.342 0.172789C20.6732 0.056517 20.1359 0.0216777 18.7703 0.00598249C17.8208 -0.00492676 16.9172 -0.000492679 16.7622 0.015836ZM27.3318 10.4183C27.5906 10.5263 27.8589 10.8897 27.8593 11.133C27.8596 11.3261 24.6498 26.6254 24.5592 26.863C24.4746 27.0845 24.1077 27.4038 23.8689 27.4637C23.7728 27.4878 23.5559 27.492 23.3871 27.473C23.1188 27.4428 22.7779 27.2153 20.6853 25.6695C19.3681 24.6967 18.2688 23.9007 18.2424 23.9007C18.1938 23.9007 17.8501 24.2135 16.174 25.7834C15.6678 26.2577 15.2106 26.6456 15.1582 26.6456C15.1057 26.6456 15.0074 26.6051 14.9395 26.5555C14.8228 26.4702 14.8293 26.3401 15.0648 24.0826C15.2015 22.7721 15.3222 21.694 15.3332 21.687C15.3589 21.6705 22.5301 15.1372 23.4734 14.2708C24.2185 13.5865 24.3612 13.3349 24.0584 13.239C23.9569 13.2068 22.4375 14.1334 18.2307 16.793L12.5402 20.3906L10.0713 19.5665C8.7134 19.1132 7.54328 18.6916 7.47099 18.6294C7.26447 18.4518 7.20042 18.2104 7.28885 17.9427C7.3319 17.8125 7.4204 17.6775 7.4855 17.6427C7.55068 17.6078 11.0279 16.2906 15.2128 14.7155C19.3977 13.1404 23.6619 11.5345 24.6889 11.1467C27.1884 10.2029 26.964 10.2648 27.3318 10.4183Z" fill="white"/>
</svg>
