<svg width="122" height="36" viewBox="0 0 122 36" fill="none" xmlns="http://www.w3.org/2000/svg">
<path d="M47.6488 14.9965V3.5916H43.3555V0.294049H55.8762V3.5916H51.6027V14.9965H47.6488Z" fill="#0072BE"/>
<path d="M65.2018 15.2905C60.7287 15.2905 57.4338 12.056 57.4338 7.64527C57.4338 3.23454 60.7287 0 65.2018 0C69.6749 0 72.9698 3.23454 72.9698 7.64527C72.9698 12.056 69.6749 15.2905 65.2018 15.2905ZM65.2018 11.846C67.3185 11.846 68.976 10.1867 68.976 7.64527C68.976 5.10385 67.3185 3.44457 65.2018 3.44457C63.085 3.44457 61.4276 5.10385 61.4276 7.64527C61.4276 10.1867 63.085 11.846 65.2018 11.846Z" fill="#0072BE"/>
<path d="M76.0391 14.9965V0.294049H82.6489C87.2818 0.294049 90.4569 3.12952 90.4569 7.64527C90.4569 12.161 87.2818 14.9965 82.6489 14.9965H76.0391ZM79.993 11.6779H82.4892C84.8655 11.6779 86.463 10.1867 86.463 7.64527C86.463 5.10385 84.8655 3.6126 82.4892 3.6126H79.993V11.6779Z" fill="#0072BE"/>
<path d="M103.804 14.9965L102.706 12.14H96.7952L95.6969 14.9965H91.6631L97.8336 0.294049H101.728L107.918 14.9965H103.804ZM97.9534 9.07351H101.548L99.7507 4.36873L97.9534 9.07351Z" fill="#0072BE"/>
<path d="M122 0.294049L116.648 9.72462V14.9965H112.694V9.66161L107.363 0.294049H111.536L114.851 6.13302L118.166 0.294049H122Z" fill="#0072BE"/>
<path d="M51.0636 21.2975C54.8777 21.2975 57.274 23.3769 57.274 26.7375C57.274 30.077 54.8777 32.1564 51.0636 32.1564H48.6273V36H44.6734V21.2975H51.0636ZM50.8239 28.8798C52.4614 28.8798 53.2802 28.0817 53.2802 26.7375C53.2802 25.3722 52.4614 24.5741 50.8239 24.5741H48.6273V28.8798H50.8239Z" fill="#0072BE"/>
<path d="M68.8469 36L66.3108 32.0933H64.1542V36H60.2003V21.2975H66.5904C70.4045 21.2975 72.8008 23.3769 72.8008 26.7375C72.8008 28.9008 71.8024 30.4971 70.0651 31.3792L73.0804 36H68.8469ZM68.807 26.7375C68.807 25.3722 67.9883 24.5741 66.3508 24.5741H64.1542V28.8798H66.3508C67.9883 28.8798 68.807 28.0817 68.807 26.7375Z" fill="#0072BE"/>
<path d="M75.9806 36V21.2975H79.9345V36H75.9806Z" fill="#0072BE"/>
<path d="M93.1714 21.2975H97.0455V36H93.7905L87.62 28.1657V36H83.746V21.2975H87.001L93.1714 29.1319V21.2975Z" fill="#0072BE"/>
<path d="M103.808 36V24.5951H99.5149V21.2975H112.036V24.5951H107.762V36H103.808Z" fill="#0072BE"/>
<ellipse cx="21.1732" cy="19.0286" rx="16.1322" ry="16.9714" fill="#FFA800"/>
<ellipse cx="9.07438" cy="9.25714" rx="9.07438" ry="9.25714" fill="#FFCE6F"/>
</svg>
