<svg width="280" height="83" viewBox="0 0 280 83" fill="none" xmlns="http://www.w3.org/2000/svg">
<path d="M108.881 34.5753V8.28063H99V0.677946H127.816V8.28063H117.981V34.5753H108.881Z" fill="#0D0D0D"/>
<path d="M149.279 35.2532C138.984 35.2532 131.401 27.7958 131.401 17.6266C131.401 7.45741 138.984 0 149.279 0C159.574 0 167.157 7.45741 167.157 17.6266C167.157 27.7958 159.574 35.2532 149.279 35.2532ZM149.279 27.3116C154.151 27.3116 157.965 23.486 157.965 17.6266C157.965 11.7672 154.151 7.94166 149.279 7.94166C144.407 7.94166 140.593 11.7672 140.593 17.6266C140.593 23.486 144.407 27.3116 149.279 27.3116Z" fill="#0D0D0D"/>
<path d="M174.221 34.5753V0.677946H189.434C200.096 0.677946 207.404 7.21529 207.404 17.6266C207.404 28.0379 200.096 34.5753 189.434 34.5753H174.221ZM183.321 26.9242H189.066C194.535 26.9242 198.212 23.486 198.212 17.6266C198.212 11.7672 194.535 8.32905 189.066 8.32905H183.321V26.9242Z" fill="#0D0D0D"/>
<path d="M238.123 34.5753L235.595 27.9895H221.991L219.463 34.5753H210.18L224.381 0.677946H233.343L247.59 34.5753H238.123ZM224.657 20.9195H232.929L228.793 10.0723L224.657 20.9195Z" fill="#0D0D0D"/>
<path d="M280 0.677946L267.683 22.4207V34.5753H258.583V22.2754L246.312 0.677946H255.918L263.547 14.14L271.176 0.677946H280Z" fill="#0D0D0D"/>
<path d="M116.74 49.1027C125.518 49.1027 131.033 53.8967 131.033 61.6447C131.033 69.3442 125.518 74.1383 116.74 74.1383H111.133V83H102.033V49.1027H116.74ZM116.189 66.584C119.957 66.584 121.842 64.7439 121.842 61.6447C121.842 58.4971 119.957 56.6569 116.189 56.6569H111.133V66.584H116.189Z" fill="#0D0D0D"/>
<path d="M157.668 83L151.832 73.993H146.868V83H137.768V49.1027H152.475C161.253 49.1027 166.768 53.8967 166.768 61.6447C166.768 66.6324 164.47 70.3127 160.472 72.3466L167.412 83H157.668ZM157.576 61.6447C157.576 58.4971 155.692 56.6569 151.924 56.6569H146.868V66.584H151.924C155.692 66.584 157.576 64.7439 157.576 61.6447Z" fill="#0D0D0D"/>
<path d="M174.087 83V49.1027H183.186V83H174.087Z" fill="#0D0D0D"/>
<path d="M213.651 49.1027H222.567V83H215.076L200.874 64.9376V83H191.958V49.1027H199.45L213.651 67.1651V49.1027Z" fill="#0D0D0D"/>
<path d="M238.132 83V56.7054H228.251V49.1027H257.067V56.7054H247.232V83H238.132Z" fill="#0D0D0D"/>
<ellipse cx="49" cy="43.5" rx="37" ry="39.5" fill="#FFA800"/>
<ellipse cx="20.5" cy="21.5" rx="20.5" ry="21.5" fill="#FFCE6F"/>
</svg>
