<svg width="29" height="29" viewBox="0 0 29 29" fill="none" xmlns="http://www.w3.org/2000/svg">
<path fill-rule="evenodd" clip-rule="evenodd" d="M5.03862 0.0625187C4.58335 0.1773 4.12308 0.435142 3.65229 0.839206C3.13025 1.28724 1.25127 3.18962 0.945425 3.57982C-0.294208 5.16119 -0.31502 7.62023 0.884322 10.7909C2.34955 14.6643 5.0946 18.5909 8.56597 21.7791C13.3533 26.1758 19.7595 29.0251 23.0624 28.2268C23.5516 28.1086 24.3649 27.7307 24.7386 27.4481C25.1137 27.1644 27.6314 24.5906 27.8651 24.2519C28.2972 23.6257 28.4639 22.7876 28.297 22.0806C28.1103 21.2902 28.0488 21.2146 25.625 18.7995C23.1812 16.3645 23.1063 16.3045 22.297 16.1343C21.6599 16.0004 21.0088 16.1185 20.379 16.4822C20.2321 16.5671 19.543 17.1961 18.8476 17.8801L17.5832 19.1238L17.1781 18.9139C16.1832 18.3985 15.4492 17.9035 14.3523 17.0081C13.226 16.0887 11.6562 14.4721 10.7896 13.3393C10.1635 12.521 9.23626 11.0088 9.23359 10.8018C9.23309 10.7621 9.66653 10.3081 10.1968 9.79281C11.3081 8.71298 11.7486 8.20783 11.9968 7.72858C12.3105 7.12301 12.3705 6.36046 12.1545 5.72651C11.9351 5.0824 11.7278 4.83842 9.59953 2.71829C7.49551 0.622396 7.17269 0.346866 6.57536 0.136932C6.15493 -0.0107861 5.4626 -0.0443333 5.03862 0.0625187ZM6.32761 1.61689C6.48576 1.707 7.37291 2.54773 8.56959 3.74156C10.7364 5.90334 10.817 6.00509 10.8141 6.57666C10.8116 7.0837 10.6808 7.25881 9.22585 8.70372C8.49312 9.43134 7.85422 10.1026 7.80608 10.1954C7.74342 10.3161 7.72467 10.4722 7.74003 10.7438C7.75923 11.0819 7.80336 11.2061 8.14337 11.8782C8.91094 13.3952 9.92291 14.7319 11.5969 16.4398C13.2632 18.1398 14.921 19.4049 16.6273 20.2786C17.2371 20.5908 17.3522 20.6312 17.629 20.6294C17.8194 20.6283 18.0178 20.5881 18.1364 20.5267C18.2436 20.4712 18.9323 19.8315 19.667 19.1051C20.6154 18.1674 21.0754 17.7515 21.253 17.6712C21.5867 17.5204 22.0218 17.5209 22.3262 17.6724C22.6633 17.8401 26.5932 21.752 26.7691 22.0948C26.8647 22.2811 26.9011 22.444 26.9011 22.6849C26.9011 23.2534 26.7858 23.4102 25.2043 24.9915C23.6383 26.5573 23.4929 26.6634 22.659 26.8483C21.8558 27.0263 20.5031 26.8846 19.1322 26.4787C17.0477 25.8617 14.2396 24.3849 11.9316 22.6919C7.48293 19.4285 3.66548 14.4476 2.08055 9.83839C1.32729 7.64779 1.24365 6.07789 1.81811 4.91317C2.00103 4.54226 2.16374 4.3554 3.32241 3.18524C4.03694 2.46356 4.71869 1.80609 4.83739 1.72413C5.33506 1.38045 5.8478 1.34358 6.32761 1.61689Z" fill="white"/>
</svg>
